<!DOCTYPE svg PUBLIC "-//W3C//DTD SVG 1.1//EN" "http://www.w3.org/Graphics/SVG/1.1/DTD/svg11.dtd">
<!-- Uploaded to: SVG Repo, www.svgrepo.com, Transformed by: SVG Repo Mixer Tools -->
<svg width="800px" height="800px" viewBox="0 0 20 20" version="1.1" xmlns="http://www.w3.org/2000/svg" fill="#000000">
<g id="SVGRepo_bgCarrier" stroke-width="0"/>
<g id="SVGRepo_tracerCarrier" stroke-linecap="round" stroke-linejoin="round"/>
<g id="SVGRepo_iconCarrier"> <g id="layer1"> <path d="M 1 1 L 1 7 L 3.2929688 20 L 15.707031 20 L 18 7 L 18 1 L 1 1 z M 2 2 L 17 2 L 17 6.9140625 L 14.867188 19 L 4.1328125 19 L 2 6.9140625 L 2 2 z M 5 4 L 5 8 L 6 17 L 7 17 L 6 8 L 6 4 L 5 4 z M 9 4 L 9 17 L 10 17 L 10 4 L 9 4 z M 13 4 L 13 8 L 12 17 L 13 17 L 14 8 L 14 4 L 13 4 z " style="fill:#ffffff; fill-opacity:1;  stroke-width:2;"/> </g> </g>
</svg>